
<svg viewBox="0 0 63.756 20.611">
 <g transform="translate(-61.402 -109.82)">
  <text transform="matrix(.26458 0 0 .26458 44.333 110.82)" fill="#000000" font-family="sans-serif" font-size="40px" style="line-height:1.25;shape-inside:url(#rect24864);white-space:pre" xml:space="preserve"/>
  <text transform="matrix(.26458 0 0 .26458 44.333 110.82)" fill="#000000" font-family="sans-serif" font-size="40px" style="line-height:1.25;shape-inside:url(#rect26022);white-space:pre" xml:space="preserve"/>
  <g transform="matrix(1.2751 0 0 1.2843 -3.73 -39.67)">
   <g transform="matrix(.047508 0 0 .047508 50.004 111.68)">
    <g clip-rule="evenodd" fill-rule="evenodd">
     <path d="m89.65 283.87-63.649 68.9h79.494l0.358-0.421 51.853-56.163c-9.851 0.291-19.801-0.356-29.849-1.912-12.606-1.977-25.341-5.445-38.207-10.404zm24.37-60.116-47.413 51.27h22.103c0.972 0 1.846 0.356 2.562 0.939 12.768 5.023 25.374 8.523 37.818 10.468 12.252 1.913 24.37 2.366 36.362 1.361l12.347-13.352h-24.823c-0.972-0.032-1.944-0.357-2.692-1.069-1.618-1.459-1.716-3.987-0.26-5.607l40.868-44.236c-12.413 4.99-25.117 7.551-38.046 7.583-12.737 0.032-25.701-2.431-38.826-7.357zm64.557-50.361h6.254l-33.414-40.479-32.179 40.479h4.699c0.323 0 0.614 0.031 0.905 0.097 0.748-0.162 1.559-0.13 2.334 0.194 8.686 3.468 17.175 5.186 25.44 5.153 8.233 0 16.365-1.718 24.37-5.121 0.52-0.227 1.04-0.323 1.591-0.323zm9.139 35.777c-2.106-0.129-3.794-1.848-3.794-3.985 0-1.103 0.456-2.074 1.168-2.788l4.861-5.898-12.445-14.453c-8.135 3.144-16.431 4.731-24.889 4.731-8.879 0.032-17.888-1.686-26.995-5.185l-27.546 33.477h14.841c0.614 0 1.201 0.13 1.751 0.39 12.996 5.185 25.731 7.745 38.176 7.713 12.508 0 24.823-2.625 36.913-7.778 2.007-0.843 4.341 0.098 5.215 2.107 0.165 0.42 0.26 0.842 0.292 1.295l8.882-9.625h-16.43zm199.44-35.681c0.292-0.065 0.583-0.097 0.905-0.097h4.699l-32.178-40.479-27.291 40.479h0.39c0.456 0.031 0.908 0.129 1.361 0.323 7.974 3.403 16.108 5.121 24.338 5.121 8.297 0.032 16.786-1.686 25.441-5.153 0.781-0.324 1.592-0.356 2.335-0.194zm10.21 41.969c0.516-0.26 1.102-0.39 1.716-0.39h14.842l-27.511-33.477c-9.143 3.499-18.152 5.217-27.031 5.185-8.457 0-16.754-1.588-24.889-4.731l-12.638 14.713 4.794 5.607c0.747 0.713 1.2 1.717 1.2 2.819 0 2.203-1.783 3.985-3.987 3.985h-16.234l9.107 9.853c0-0.519 0.094-1.037 0.322-1.522 0.842-2.01 3.176-2.95 5.188-2.107 12.118 5.153 24.401 7.778 36.909 7.778 12.445 0.032 25.185-2.528 38.212-7.713zm23.398 60.505c0.681-0.583 1.555-0.939 2.526-0.939h22.104l-47.383-51.27c-13.156 4.926-26.117 7.389-38.856 7.356-13.06-0.032-25.862-2.626-38.401-7.745l40.834 44.204c0.743 0.745 1.231 1.749 1.231 2.884 0 2.204-1.814 3.987-3.987 3.987h-24.857l12.314 13.352c12.09 1.005 24.307 0.583 36.622-1.361 12.444-1.945 25.05-5.445 37.853-10.468zm-14.456 76.807h79.694l-63.652-68.899c-12.831 4.959-25.602 8.427-38.208 10.403-10.111 1.588-20.158 2.203-30.072 1.912l51.723 55.969c0.192 0.194 0.354 0.388 0.515 0.615zm-30.431 45.986v-38.014h-11.988v38.014zm-91.194-242.9h7.551l-37.109-44.949-35.744 44.949h5.864c0.327 0 0.649 0.033 0.972 0.098 0.779-0.162 1.622-0.13 2.4 0.193 9.493 3.793 18.762 5.672 27.806 5.641 9.009 0 17.92-1.913 26.637-5.607 0.552-0.227 1.103-0.325 1.623-0.325zm12.153 45.76 0.031-0.031h0.032l0.066-0.033 0.031-0.032h0.031l0.032-0.032h0.066l0.031-0.033h0.032l0.066-0.031h0.031l0.032-0.033h0.097l0.032-0.032h0.097l0.063-0.032h0.066l0.063-0.033h0.066l0.032-0.032h0.195l0.063-0.032h0.61l16.499-0.033-31.6-36.686c-8.879 3.436-17.955 5.186-27.188 5.219-9.689 0-19.509-1.88-29.494-5.705l-28.743 34.938-1.85 2.234h16.884c0.649 0 1.232 0.163 1.751 0.422 14.196 5.64 28.129 8.426 41.71 8.394 13.623-3e-3 27.009-2.855 40.166-8.397zm25.472 65.82c0.744-0.648 1.653-0.939 2.594-0.939l24.822-0.032-52.238-56.552c-13.322 5.314-26.933 8.004-40.802 8.037-13.904 0.032-28.034-2.658-42.359-8.07l-52.274 56.585h24.857c0.972 0 1.846 0.356 2.562 0.939 23.008 9.075 45.596 13.547 67.729 13.515 22.072-0.033 43.785-4.57 65.109-13.483zm-134.46 7.844-70 75.769h276.08l-69.937-75.704c-21.844 8.912-44.108 13.481-66.794 13.514-22.748 0.033-45.854-4.44-69.35-13.579zm-51.498 86.865v38.014h12.023v-38.014z"/>
     <path d="m240.52 360.17v42.065h35.488l-0.6839-35.91z" stroke-width="5.5692"/>
     <path id="pines" d="m89.65 283.87-63.649 68.9h79.494l0.358-0.421 51.853-56.163c-9.851 0.291-19.801-0.356-29.849-1.912-12.606-1.977-25.341-5.445-38.207-10.404zm24.37-60.116-47.413 51.27h22.103c0.972 0 1.846 0.356 2.562 0.939 12.768 5.023 25.374 8.523 37.818 10.468 12.252 1.913 24.37 2.366 36.362 1.361l12.347-13.352h-24.823c-0.972-0.032-1.944-0.357-2.692-1.069-1.618-1.459-1.716-3.987-0.26-5.607l40.868-44.236c-12.413 4.99-25.117 7.551-38.046 7.583-12.737 0.032-25.701-2.431-38.826-7.357zm64.557-50.361h6.254l-33.414-40.479-32.179 40.479h4.699c0.323 0 0.614 0.031 0.905 0.097 0.748-0.162 1.559-0.13 2.334 0.194 8.686 3.468 17.175 5.186 25.44 5.153 8.233 0 16.365-1.718 24.37-5.121 0.52-0.227 1.04-0.323 1.591-0.323zm9.139 35.777c-2.106-0.129-3.794-1.848-3.794-3.985 0-1.103 0.456-2.074 1.168-2.788l4.861-5.898-12.445-14.453c-8.135 3.144-16.431 4.731-24.889 4.731-8.879 0.032-17.888-1.686-26.995-5.185l-27.546 33.477h14.841c0.614 0 1.201 0.13 1.751 0.39 12.996 5.185 25.731 7.745 38.176 7.713 12.508 0 24.823-2.625 36.913-7.778 2.007-0.843 4.341 0.098 5.215 2.107 0.165 0.42 0.26 0.842 0.292 1.295l8.882-9.625h-16.43zm199.44-35.681c0.292-0.065 0.583-0.097 0.905-0.097h4.699l-32.178-40.479-27.291 40.479h0.39c0.456 0.031 0.908 0.129 1.361 0.323 7.974 3.403 16.108 5.121 24.338 5.121 8.297 0.032 16.786-1.686 25.441-5.153 0.781-0.324 1.592-0.356 2.335-0.194zm10.21 41.969c0.516-0.26 1.102-0.39 1.716-0.39h14.842l-27.511-33.477c-9.143 3.499-18.152 5.217-27.031 5.185-8.457 0-16.754-1.588-24.889-4.731l-12.638 14.713 4.794 5.607c0.747 0.713 1.2 1.717 1.2 2.819 0 2.203-1.783 3.985-3.987 3.985h-16.234l9.107 9.853c0-0.519 0.094-1.037 0.322-1.522 0.842-2.01 3.176-2.95 5.188-2.107 12.118 5.153 24.401 7.778 36.909 7.778 12.445 0.032 25.185-2.528 38.212-7.713zm23.398 60.505c0.681-0.583 1.555-0.939 2.526-0.939h22.104l-47.383-51.27c-13.156 4.926-26.117 7.389-38.856 7.356-13.06-0.032-25.862-2.626-38.401-7.745l40.834 44.204c0.743 0.745 1.231 1.749 1.231 2.884 0 2.204-1.814 3.987-3.987 3.987h-24.857l12.314 13.352c12.09 1.005 24.307 0.583 36.622-1.361 12.444-1.945 25.05-5.445 37.853-10.468zm-14.456 76.807h79.694l-63.652-68.899c-12.831 4.959-25.602 8.427-38.208 10.403-10.111 1.588-20.158 2.203-30.072 1.912l51.723 55.969c0.192 0.194 0.354 0.388 0.515 0.615zm-121.62-196.91h7.551l-37.109-44.949-35.744 44.949h5.864c0.327 0 0.649 0.033 0.972 0.098 0.779-0.162 1.622-0.13 2.4 0.193 9.493 3.793 18.762 5.672 27.806 5.641 9.009 0 17.92-1.913 26.637-5.607 0.552-0.227 1.103-0.325 1.623-0.325zm12.153 45.76 0.031-0.031h0.032l0.066-0.033 0.031-0.032h0.031l0.032-0.032h0.066l0.031-0.033h0.032l0.066-0.031h0.031l0.032-0.033h0.097l0.032-0.032h0.097l0.063-0.032h0.066l0.063-0.033h0.066l0.032-0.032h0.195l0.063-0.032h0.61l16.499-0.033-31.6-36.686c-8.879 3.436-17.955 5.186-27.188 5.219-9.689 0-19.509-1.88-29.494-5.705l-28.743 34.938-1.85 2.234h16.884c0.649 0 1.232 0.163 1.751 0.422 14.196 5.64 28.129 8.426 41.71 8.394 13.623-3e-3 27.009-2.855 40.166-8.397zm25.472 65.82c0.744-0.648 1.653-0.939 2.594-0.939l24.822-0.032-52.238-56.552c-13.322 5.314-26.933 8.004-40.802 8.037-13.904 0.032-28.034-2.658-42.359-8.07l-52.274 56.585h24.857c0.972 0 1.846 0.356 2.562 0.939 23.008 9.075 45.596 13.547 67.729 13.515 22.072-0.033 43.785-4.57 65.109-13.483zm-134.46 7.844-70 75.769h276.08l-69.937-75.704c-21.844 8.912-44.108 13.481-66.794 13.514-22.748 0.033-45.854-4.44-69.35-13.579z" fill="#000000"/>
    </g>
   </g>
  </g>
  <text x="86.613899" y="119.09455" fill="#000000" font-family="'Dancing Script'" font-size="10.583px" font-weight="600" stroke-width=".26458" style="font-variant-caps:normal;font-variant-east-asian:normal;font-variant-ligatures:normal;font-variant-numeric:normal;line-height:1.25" xml:space="preserve"><tspan x="86.613899" y="119.09455" font-family="'Dancing Script'" font-size="10.583px" font-weight="600" stroke-width=".26458" style="font-variant-caps:normal;font-variant-east-asian:normal;font-variant-ligatures:normal;font-variant-numeric:normal">Carpatian</tspan></text>
  <g stroke-width=".26458" aria-label="Shop">
   <path d="m91.991 128.39q-0.5715 0-1.0795-0.21167-0.508-0.20108-0.8255-0.62441-0.30692-0.42334-0.30692-1.0583 0-0.55034 0.21167-0.85725 0.22225-0.30692 0.53975-0.43392t0.60325-0.127q-0.28575 0.30692-0.43392 0.67733-0.14817 0.37042-0.14817 0.74084 0 0.39158 0.16933 0.73024 0.17992 0.33867 0.53975 0.53975 0.35983 0.21167 0.91016 0.21167 0.47625 0 0.93133-0.17992 0.45508-0.16933 0.74083-0.508 0.29633-0.34925 0.29633-0.85724 0-0.45509-0.23283-0.78317-0.23283-0.32808-0.60325-0.58208-0.35983-0.254-0.77258-0.48683-0.41275-0.23283-0.78316-0.48683-0.35983-0.26459-0.59266-0.60325-0.23283-0.33867-0.23283-0.81492 0-0.44449 0.21167-0.93133 0.21167-0.48683 0.60325-0.92074 0.40217-0.43392 0.9525-0.6985 0.56092-0.27517 1.2488-0.27517 0.62441 0 0.86783 0.30692 0.24342 0.29633 0.24342 0.75141 0 0.381-0.13758 0.8255-0.127 0.43392-0.3175 0.83608-0.1905 0.39158-0.35983 0.66675-0.1905-0.0423-0.27517-0.15875-0.07408-0.127-0.07408-0.29633 0-0.22225 0.09525-0.508t0.21167-0.59267q0.127-0.30691 0.22225-0.59266 0.09525-0.29633 0.09525-0.52917 0-0.21166-0.127-0.32808-0.127-0.127-0.46566-0.127-0.49742 0-0.92075 0.23283-0.42333 0.23284-0.74083 0.60325-0.3175 0.35984-0.49742 0.762-0.16933 0.40217-0.16933 0.73025 0 0.39158 0.22225 0.67733 0.23283 0.27517 0.59266 0.508 0.35983 0.22225 0.762 0.45508 0.41275 0.22225 0.77258 0.49741 0.35983 0.27517 0.58208 0.65617 0.23283 0.37041 0.23283 0.91016 0 0.55033-0.24342 0.97367-0.24342 0.41275-0.65616 0.69849-0.40216 0.28575-0.889 0.43392t-0.97366 0.14817z"/>
   <path d="m96.013 127.87q-0.20108 0-0.3175-0.33866-0.11642-0.33867-0.11642-0.762 0-0.508 0.16933-1.2065 0.16933-0.69849 0.4445-1.4711t0.61383-1.5134q0.34925-0.74083 0.70908-1.3441 0.35983-0.60325 0.67733-0.96308 0.3175-0.35984 0.55033-0.35984 0.1905 0 0.26458 0.23284 0.08467 0.22224 0.08467 0.43391 0 0.29633-0.13758 0.71967-0.127 0.42333-0.35983 0.91016-0.23283 0.47625-0.53975 0.94191-0.30692 0.46567-0.66675 0.85725-0.35983 0.381-0.73025 0.60325-0.127 0.30691-0.22225 0.68791-0.08467 0.381-0.127 0.75142-0.04233 0.35983-0.04233 0.64558 0 0.11641 0 0.20108 0.01058 0.0847 0.02117 0.15875 0.14817-0.43392 0.3175-0.83608 0.17992-0.41275 0.381-0.75141 0.20108-0.34925 0.42333-0.60325 0.23283-0.26459 0.48683-0.40217 0.254-0.14816 0.53975-0.14816 0.29633 0 0.46566 0.14816 0.17992 0.13758 0.254 0.35983 0.08467 0.21167 0.08467 0.4445 0 0.32808-0.11642 0.635-0.10583 0.30692-0.22225 0.59267-0.11642 0.28574-0.11642 0.55033 0 0.21166 0.08467 0.30691 0.09525 0.0953 0.23283 0.0953 0.24342 0 0.53975-0.23283 0.30692-0.23283 0.60325-0.61383 0.29633-0.39158 0.508-0.84667l0.13758 0.127q-0.22225 0.51859-0.53975 0.94192-0.3175 0.41275-0.6985 0.65616-0.381 0.24342-0.79375 0.24342-0.35983 0-0.55033-0.1905-0.17992-0.1905-0.17992-0.47625 0-0.22225 0.08467-0.49741 0.08467-0.27517 0.15875-0.56092 0.08467-0.28575 0.08467-0.53975 0-0.27516-0.11642-0.39158t-0.28575-0.11642q-0.26458 0-0.47625 0.21167t-0.39158 0.55033q-0.16933 0.32808-0.32808 0.6985-0.14817 0.37041-0.28575 0.70908-0.13758 0.32808-0.27517 0.53975-0.13758 0.21166-0.28575 0.21166zm0.78316-3.6724q0.29633-0.23283 0.5715-0.59267 0.28575-0.35983 0.52916-0.76199 0.24342-0.41275 0.43392-0.80433 0.1905-0.39159 0.29633-0.70908 0.10583-0.3175 0.10583-0.47625 0-0.0529-0.01058-0.0635-0.01058-0.0212-0.03175-0.0212-0.07408 0-0.30692 0.29633-0.22225 0.28575-0.51858 0.77258-0.29633 0.48684-0.58208 1.1007t-0.48683 1.2594z"/>
   <path d="m101.28 127.81q-0.45508 0-0.64558-0.28574-0.1905-0.27517-0.1905-0.67734 0-0.32808 0.10583-0.67733 0.10584-0.34925 0.27517-0.65616 0.17992-0.30692 0.39158-0.49742 0.22225-0.1905 0.4445-0.1905 0.0529 0 0.10583 0.0212 0.0635 0.0106 0.11642 0.0318-0.0953 0.0847-0.23283 0.3175-0.127 0.22225-0.24342 0.51858-0.11641 0.28575-0.20108 0.5715-0.0741 0.28575-0.0741 0.48683 0 0.3175 0.10583 0.46567 0.10583 0.13758 0.27516 0.13758 0.22225 0 0.52917-0.23283 0.30692-0.24342 0.60325-0.61383-0.29633-0.24342-0.46567-0.635-0.15875-0.40217-0.15875-0.81492 0-0.34925 0.11642-0.65616 0.127-0.30692 0.35983-0.48683 0.23283-0.1905 0.56092-0.1905 0.43391 0 0.58208 0.23283 0.14816 0.23283 0.14816 0.58208 0 0.41275-0.20108 0.92075-0.20108 0.49741-0.508 0.96308 0.1905 0.10583 0.40217 0.10583 0.16933 0 0.381-0.0635 0.21166-0.0741 0.41275-0.24341 0.21166-0.16934 0.33866-0.45509l0.127 0.10584q-0.21166 0.49741-0.60325 0.70908-0.381 0.20108-0.73024 0.20108-0.13759 0-0.26459-0.0212-0.127-0.0318-0.24341-0.0847-0.35984 0.47625-0.79375 0.79375-0.42333 0.31749-0.8255 0.31749zm1.5558-1.5557q0.26458-0.39158 0.43391-0.81491 0.17992-0.43392 0.17992-0.81492 0-0.30691-0.0952-0.4445-0.0847-0.14816-0.22225-0.14816-0.21167 0-0.43392 0.30691-0.22224 0.30692-0.22224 0.77258 0 0.30692 0.0847 0.62442 0.0953 0.30691 0.27517 0.51858z"/>
   <path d="m103.75 130.43q-0.0847 0-0.15875-0.0953-0.0847-0.0847-0.127-0.1905-0.0423-0.0952-0.0423-0.11641 0.14816-0.51858 0.29633-0.93133 0.13758-0.40217 0.28575-0.83608 0.13758-0.42334 0.27516-0.99483 0.13759-0.58209 0.28575-1.4393 0.14817-0.85725 0.29633-2.1272 0.0106-0.0952 0.0423-0.13758 0.0318-0.0423 0.15875-0.0423 0.27516 0 0.39158 0.15875 0.11642 0.14816 0.11642 0.32808 0 0.14817-0.0635 0.52916-0.0635 0.381-0.17992 0.89959 0.17992-0.34925 0.4445-0.70909 0.27516-0.35983 0.62441-0.60324 0.34925-0.24342 0.762-0.24342 0.46567 0 0.762 0.33867 0.30691 0.32808 0.30691 0.86783 0 0.41275-0.1905 0.87841-0.17991 0.45508-0.51858 0.86783-0.32808 0.40217-0.78316 0.65617-0.45508 0.25399-1.0054 0.25399-0.27517 0-0.4445-0.0635-0.16934-0.0635-0.16934-0.12699 0-0.0423 0.0741-0.0529 0.0847 0 0.1905 0 0.42333 0 0.80433-0.20108 0.39158-0.21167 0.6985-0.55034 0.30691-0.33866 0.47624-0.75141 0.17992-0.41275 0.17992-0.81491 0-0.33867-0.14817-0.5715-0.13758-0.24342-0.45508-0.24342-0.27516 0-0.55033 0.17992-0.26458 0.16933-0.508 0.4445-0.23283 0.26458-0.42333 0.56091-0.17992 0.28575-0.27517 0.51858-0.1905 0.79375-0.38099 1.524-0.1905 0.74083-0.37042 1.3335-0.16933 0.60325-0.30692 0.98425-0.14816 0.381-0.24341 0.46567-0.0529 0.0529-0.127 0.0529z"/>
  </g>
 </g>
</svg>
